<svg width="228" height="52" viewBox="0 0 228 52" fill="none" xmlns="http://www.w3.org/2000/svg">
<g clip-path="url(#clip0_2736_18625)">
<path d="M31.5645 25.9945C33.9731 24.038 35.9274 21.8826 37.4044 19.5613C39.3586 16.4774 40.3471 13.2608 40.3471 10H36.9385C36.9385 12.6418 36.1205 15.2725 34.4958 17.8259C33.1097 20.0035 31.1327 22.1036 28.7468 23.9496C27.8492 23.3637 26.9289 22.8111 25.9859 22.3026C31.0532 18.7986 33.8254 14.4435 33.8254 10H30.4169C30.4169 13.4266 27.8946 17.0411 23.509 19.9371C23.1568 20.1693 22.7819 20.4014 22.4183 20.6225C21.6912 20.324 20.964 20.0477 20.2255 19.8045V10.0111H16.817V18.8318C15.6808 18.5665 14.5333 18.3675 13.4085 18.2238V10.0111H10V18.0028V21.3188C12.6473 21.3188 15.4536 21.7831 18.2372 22.6342C15.4422 23.7174 12.545 24.3254 10 24.3254V27.6415C12.545 27.6415 15.4309 28.2604 18.2372 29.3326C15.465 30.1838 12.6586 30.648 10 30.648V33.9641V41.9889H13.4085V33.7762C14.5333 33.6435 15.6808 33.4335 16.817 33.1682V41.9889H20.2255V32.1955C20.964 31.9413 21.6912 31.676 22.4183 31.3775C22.7933 31.5986 23.1568 31.8197 23.509 32.0629C27.8946 34.9478 30.4169 38.5734 30.4169 42H33.8254C33.8254 37.5565 31.0418 33.2014 25.9859 29.6974C26.9289 29.1889 27.8492 28.6363 28.7468 28.0504C31.1327 29.8853 33.121 31.9965 34.4958 34.1741C36.1091 36.7275 36.9385 39.3582 36.9385 42H40.3471C40.3471 38.7392 39.3586 35.5226 37.4044 32.4387C35.9387 30.1064 33.9731 27.9509 31.5645 25.9945ZM18.7485 25.9945C20.0664 25.5302 21.3617 24.9665 22.6115 24.3254C23.6795 24.8228 24.7247 25.3865 25.7473 25.9945C24.7361 26.6024 23.6908 27.1661 22.6115 27.6636C21.3617 27.0225 20.0551 26.4698 18.7485 25.9945Z" fill="#8098F9"/>
</g>
<g clip-path="url(#clip1_2736_18625)">
<path d="M60.0726 33.9784L55.5621 29.1149H54.7667V33.9784H50.347V14.6126H54.7667V25.0803H55.3803L59.7772 20.482H65.1172L59.0387 26.9152L65.7535 33.9895H60.0726V33.9784Z" fill="#8098F9"/>
<path d="M80.6714 33.9784H76.2517V32.9062C75.1269 33.89 73.6839 34.3874 71.9342 34.3874C70.0595 34.3874 68.4575 33.7242 67.1396 32.3867C65.8216 31.0492 65.1627 29.3359 65.1627 27.2358C65.1627 25.1356 65.8216 23.4444 67.1396 22.0959C68.4575 20.7473 70.0595 20.0731 71.9342 20.0731C73.6839 20.0731 75.1269 20.5705 76.2517 21.5542V20.482H80.6714V33.9784ZM75.2405 29.7449C75.9108 29.0927 76.2517 28.2527 76.2517 27.2247C76.2517 26.1967 75.9108 25.3898 75.2405 24.7266C74.5701 24.0634 73.7748 23.7318 72.8432 23.7318C71.9115 23.7318 71.0594 24.0634 70.4345 24.7155C69.8096 25.3677 69.4915 26.2078 69.4915 27.2358C69.4915 28.2637 69.8096 29.1149 70.4345 29.767C71.0594 30.4081 71.8661 30.7397 72.8432 30.7397C73.7635 30.7176 74.5701 30.3971 75.2405 29.7449Z" fill="#8098F9"/>
<path d="M93.1465 20.3936L92.9534 24.6934H92.1467C88.9541 24.6934 87.3634 26.3846 87.3634 29.756V33.9784H82.9437V20.471H87.3634V23.0575C88.511 21.2116 90.1016 20.2831 92.1467 20.2831C92.5216 20.2831 92.8511 20.3162 93.1465 20.3936Z" fill="#8098F9"/>
<path d="M117.176 21.5874C118.188 22.6043 118.699 23.9197 118.699 25.5335V33.9784H114.302V26.451C114.302 25.6993 114.086 25.0914 113.643 24.6382C113.2 24.185 112.643 23.9529 111.984 23.9529C111.155 23.9529 110.496 24.2402 110.007 24.8261C109.519 25.4119 109.28 26.252 109.28 27.3684V33.9895H104.86V26.451C104.86 25.6993 104.644 25.0914 104.201 24.6382C103.758 24.185 103.202 23.9529 102.52 23.9529C101.69 23.9529 101.043 24.2402 100.566 24.8261C100.1 25.4119 99.8612 26.252 99.8612 27.3684V33.9895H95.4415V20.471H99.8612V21.709C100.872 20.6147 102.236 20.0731 103.951 20.0731C105.997 20.0731 107.508 20.8358 108.485 22.3611C109.678 20.8358 111.325 20.0731 113.404 20.0731C114.904 20.0731 116.165 20.5815 117.176 21.5874Z" fill="#8098F9"/>
<path d="M136.48 33.9784H132.06V32.9062C130.935 33.89 129.493 34.3874 127.743 34.3874C125.868 34.3874 124.266 33.7242 122.948 32.3867C121.63 31.0492 120.971 29.3359 120.971 27.2358C120.971 25.1356 121.63 23.4444 122.948 22.0959C124.266 20.7473 125.868 20.0731 127.743 20.0731C129.493 20.0731 130.935 20.5705 132.06 21.5542V20.482H136.48V33.9784ZM131.049 29.7449C131.719 29.0927 132.06 28.2527 132.06 27.2247C132.06 26.1967 131.719 25.3898 131.049 24.7266C130.379 24.0634 129.583 23.7318 128.652 23.7318C127.72 23.7318 126.868 24.0634 126.243 24.7155C125.618 25.3677 125.3 26.2078 125.3 27.2358C125.3 28.2637 125.618 29.1149 126.243 29.767C126.868 30.4081 127.675 30.7397 128.652 30.7397C129.583 30.7176 130.379 30.3971 131.049 29.7449Z" fill="#8098F9"/>
<mask id="path-7-inside-1_2736_18625" fill="white">
<path d="M140.48 30.5H154.48V34.5H140.48V30.5Z"/>
</mask>
<path d="M154.48 34.5V36.5H156.48V34.5H154.48ZM140.48 34.5H138.48V36.5H140.48V34.5ZM152.48 30.5V34.5H156.48V30.5H152.48ZM154.48 32.5H140.48V36.5H154.48V32.5ZM142.48 34.5V30.5H138.48V34.5H142.48Z" fill="#8098F9" mask="url(#path-7-inside-1_2736_18625)"/>
<path d="M173.558 23.5056L174.969 24.735V33.2687L173.558 34.4981H159.89L158.48 33.2687V15.7313L159.89 14.5019H173.956V16.1652H160.36V32.7986H173.088V25.169H166.797V23.5056H173.558Z" fill="#101828"/>
<g clip-path="url(#clip2_2736_18625)">
<path d="M188.047 14.584L188.047 28.7608L177.969 33.5892L188.047 14.584Z" fill="#1DE9B6"/>
<path d="M187.891 14.584L187.891 28.7608L197.969 33.5892L187.891 14.584Z" fill="#8098F9"/>
</g>
<path d="M200.969 34.4981V14.5019H216.047L217.457 15.7313V23.9757L216.047 25.2413H202.849V34.4981H200.969ZM202.849 23.5418H215.577V16.1652H202.849V23.5418Z" fill="#101828"/>
</g>
<defs>
<clipPath id="clip0_2736_18625">
<rect width="30.347" height="32" fill="white" transform="translate(10 10)"/>
</clipPath>
<clipPath id="clip1_2736_18625">
<rect width="167.11" height="35" fill="white" transform="translate(50.347 7)"/>
</clipPath>
<clipPath id="clip2_2736_18625">
<rect width="20" height="20" fill="white" transform="translate(177.969 14.5)"/>
</clipPath>
</defs>
</svg>
